<?xml version="1.0" encoding="iso-8859-1"?>
<!-- Uploaded to: SVG Repo, www.svgrepo.com, Generator: SVG Repo Mixer Tools -->
<svg height="800px" width="800px" version="1.1" id="Layer_1" xmlns="http://www.w3.org/2000/svg" xmlns:xlink="http://www.w3.org/1999/xlink" 
	 viewBox="0 0 497.6 497.6" xml:space="preserve">
<path style="fill:#747F87;" d="M69.6,466.4c0,16.8-13.6,30.4-30.4,30.4l0,0c-16.8,0-30.4-13.6-30.4-30.4V31.2
	c0-16.8,13.6-30.4,30.4-30.4l0,0c16.8,0,30.4,13.6,30.4,30.4V466.4z"/>
<g>
	<path style="fill:#5B666D;" d="M39.2,497.6L39.2,497.6c-16.8,0-30.4-13.6-30.4-30.4v-436c0-16.8,13.6-30.4,30.4-30.4l0,0"/>
	<path style="fill:#5B666D;" d="M428,31.2c0-16.8,13.6-30.4,30.4-30.4l0,0c16.8,0,30.4,13.6,30.4,30.4v436
		c0,16.8-13.6,30.4-30.4,30.4l0,0c-16.8,0-30.4-13.6-30.4-30.4V31.2z"/>
</g>
<path style="fill:#747F87;" d="M458.4,0L458.4,0c16.8,0,30.4,13.6,30.4,30.4v436c0,16.8-13.6,30.4-30.4,30.4l0,0"/>
<g>
	<path style="fill:#5B666D;" d="M452.8,80.8c0,6.4-5.6,12-12,12h-384c-6.4,0-12-5.6-12-12l0,0c0-6.4,5.6-12,12-12h384
		C447.2,68.8,452.8,74.4,452.8,80.8L452.8,80.8z"/>
	<path style="fill:#5B666D;" d="M452.8,192.8c0,6.4-5.6,12-12,12h-384c-6.4,0-12-5.6-12-12l0,0c0-6.4,5.6-12,12-12h384
		C447.2,180.8,452.8,186.4,452.8,192.8L452.8,192.8z"/>
	<path style="fill:#5B666D;" d="M452.8,304.8c0,6.4-5.6,12-12,12h-384c-6.4,0-12-5.6-12-12l0,0c0-6.4,5.6-12,12-12h384
		C447.2,292.8,452.8,298.4,452.8,304.8L452.8,304.8z"/>
	<path style="fill:#5B666D;" d="M452.8,416.8c0,6.4-5.6,12-12,12h-384c-6.4,0-12-5.6-12-12l0,0c0-6.4,5.6-12,12-12h384
		C447.2,404.8,452.8,410.4,452.8,416.8L452.8,416.8z"/>
</g>
<circle style="fill:#37B546;" cx="124.8" cy="80.8" r="32"/>
<path style="fill:#27A032;" d="M156.8,80.8c0,17.6-14.4,32-32,32s-32-14.4-32-32"/>
<path style="fill:#5B666D;" d="M158.4,80.8c0,9.6-4,16.8-8,16.8s-7.2-7.2-7.2-16.8s3.2-16.8,7.2-16.8
	C153.6,64,158.4,71.2,158.4,80.8z"/>
<g>
	<path style="fill:#45CE52;" d="M123.2,52c2.4,2.4-1.6,9.6-8.8,15.2s-14.4,8-16.8,4.8c-2.4-2.4,1.6-9.6,8.8-14.4
		C114.4,52,121.6,49.6,123.2,52z"/>
	<circle style="fill:#45CE52;" cx="130.4" cy="54.4" r="2.4"/>
</g>
<circle style="fill:#37B546;" cx="208.8" cy="416.8" r="32"/>
<path style="fill:#27A032;" d="M240.8,416.8c0,17.6-14.4,32-32,32s-32-14.4-32-32"/>
<path style="fill:#5B666D;" d="M242.4,416.8c0,9.6-4,16.8-8,16.8s-7.2-7.2-7.2-16.8s3.2-16.8,7.2-16.8
	C237.6,400,242.4,407.2,242.4,416.8z"/>
<g>
	<path style="fill:#45CE52;" d="M207.2,388c2.4,2.4-1.6,9.6-8.8,15.2s-14.4,8-16.8,4.8c-2.4-2.4,1.6-9.6,8.8-14.4
		C198.4,388,205.6,385.6,207.2,388z"/>
	<circle style="fill:#45CE52;" cx="214.4" cy="390.4" r="2.4"/>
</g>
<circle style="fill:#1B3A1D;" cx="96.8" cy="304.8" r="32"/>
<path style="fill:#061407;" d="M128.8,304.8c0,17.6-14.4,32-32,32s-32-14.4-32-32"/>
<path style="fill:#5B666D;" d="M130.4,304.8c0,9.6-4,16.8-8,16.8s-7.2-7.2-7.2-16.8s3.2-16.8,7.2-16.8
	C125.6,288,130.4,295.2,130.4,304.8z"/>
<g>
	<path style="fill:#305631;" d="M95.2,276c2.4,2.4-1.6,9.6-8.8,15.2c-7.2,5.6-14.4,8-16.8,4.8c-2.4-2.4,1.6-9.6,8.8-14.4
		C86.4,276,93.6,273.6,95.2,276z"/>
	<circle style="fill:#305631;" cx="102.4" cy="278.4" r="2.4"/>
</g>
<circle style="fill:#FFA300;" cx="268.8" cy="304.8" r="32"/>
<path style="fill:#FF6D00;" d="M300.8,304.8c0,17.6-14.4,32-32,32s-32-14.4-32-32"/>
<path style="fill:#5B666D;" d="M302.4,304.8c0,9.6-4,16.8-8,16.8s-7.2-7.2-7.2-16.8s3.2-16.8,7.2-16.8
	C297.6,288,302.4,295.2,302.4,304.8z"/>
<g>
	<path style="fill:#FFDA00;" d="M267.2,276c2.4,2.4-1.6,9.6-8.8,15.2c-7.2,5.6-14.4,8-16.8,4.8c-2.4-2.4,1.6-9.6,8.8-14.4
		C257.6,276,264.8,273.6,267.2,276z"/>
	<circle style="fill:#FFDA00;" cx="274.4" cy="278.4" r="2.4"/>
</g>
<circle style="fill:#F28BD7;" cx="391.2" cy="304.8" r="32"/>
<path style="fill:#D65BAD;" d="M423.2,304.8c0,17.6-14.4,32-32,32s-32-14.4-32-32"/>
<path style="fill:#5B666D;" d="M424,304.8c0,9.6-4,16.8-8,16.8s-7.2-7.2-7.2-16.8S412,288,416,288S424,295.2,424,304.8z"/>
<g>
	<path style="fill:#FFC5F3;" d="M388.8,276c2.4,2.4-1.6,9.6-8.8,15.2c-7.2,5.6-14.4,8-16.8,4.8c-2.4-2.4,1.6-9.6,8.8-14.4
		C380,276,387.2,273.6,388.8,276z"/>
	<circle style="fill:#FFC5F3;" cx="396" cy="278.4" r="2.4"/>
</g>
<circle style="fill:#5FAFE0;" cx="220.8" cy="192.8" r="32"/>
<path style="fill:#469FCC;" d="M252.8,192.8c0,17.6-14.4,32-32,32s-32-14.4-32-32"/>
<path style="fill:#5B666D;" d="M254.4,192.8c0,9.6-4,16.8-8,16.8s-7.2-7.2-7.2-16.8s3.2-16.8,7.2-16.8
	C249.6,176,254.4,183.2,254.4,192.8z"/>
<g>
	<path style="fill:#8BCDEF;" d="M219.2,164c2.4,2.4-1.6,9.6-8.8,15.2c-7.2,5.6-14.4,8-16.8,4.8c-2.4-2.4,1.6-9.6,8.8-14.4
		C210.4,164,217.6,161.6,219.2,164z"/>
	<circle style="fill:#8BCDEF;" cx="226.4" cy="166.4" r="2.4"/>
</g>
<circle style="fill:#BC79CC;" cx="291.2" cy="192.8" r="32"/>
<path style="fill:#A662B7;" d="M323.2,192.8c0,17.6-14.4,32-32,32s-32-14.4-32-32"/>
<path style="fill:#5B666D;" d="M324,192.8c0,9.6-4,16.8-8,16.8s-7.2-7.2-7.2-16.8S312,176,316,176S324,183.2,324,192.8z"/>
<g>
	<path style="fill:#D396E2;" d="M289.6,164c2.4,2.4-1.6,9.6-8.8,15.2c-7.2,5.6-14.4,8-16.8,4.8c-2.4-2.4,1.6-9.6,8.8-14.4
		C280,164,287.2,161.6,289.6,164z"/>
	<circle style="fill:#D396E2;" cx="296" cy="166.4" r="2.4"/>
</g>
<circle style="fill:#F75959;" cx="192.8" cy="80.8" r="32"/>
<path style="fill:#DB4242;" d="M224.8,80.8c0,17.6-14.4,32-32,32s-32-14.4-32-32"/>
<path style="fill:#5B666D;" d="M225.6,80.8c0,9.6-4,16.8-8,16.8s-7.2-7.2-7.2-16.8s3.2-16.8,7.2-16.8S225.6,71.2,225.6,80.8z"/>
<g>
	<path style="fill:#FF9292;" d="M191.2,52c2.4,2.4-1.6,9.6-8.8,15.2s-14.4,8-16.8,4.8c-2.4-2.4,1.6-9.6,8.8-14.4
		C181.6,52,188.8,49.6,191.2,52z"/>
	<circle style="fill:#FF9292;" cx="197.6" cy="54.4" r="2.4"/>
</g>
<circle style="fill:#F4C70C;" cx="344.8" cy="80.8" r="32"/>
<path style="fill:#F7AD0B;" d="M376.8,80.8c0,17.6-14.4,32-32,32s-32-14.4-32-32"/>
<path style="fill:#5B666D;" d="M377.6,80.8c0,9.6-4,16.8-8,16.8s-7.2-7.2-7.2-16.8s3.2-16.8,7.2-16.8S377.6,71.2,377.6,80.8z"/>
<g>
	<path style="fill:#FCE47E;" d="M343.2,52c2.4,2.4-1.6,9.6-8.8,15.2c-7.2,5.6-14.4,8-16.8,4.8c-2.4-2.4,1.6-9.6,8.8-14.4
		C333.6,52,340.8,49.6,343.2,52z"/>
	<circle style="fill:#FCE47E;" cx="349.6" cy="54.4" r="2.4"/>
</g>
</svg>